<svg preserveAspectRatio="none" overflow="visible" style="display: block;" width="660.048" height="241.865" viewBox="0 0 660.048 241.865" fill="none" xmlns="http://www.w3.org/2000/svg">
<g id="Group 101237">
<g id="Union" filter="url(#filter0_d_642_1966)">
<path d="M549.28 10.0613C563.248 10.0615 575.743 16.3627 584.083 26.2752C590.409 22.9376 597.616 21.0457 605.267 21.0457C630.376 21.0457 650.732 41.4009 650.732 66.5106C650.732 91.6204 630.376 111.976 605.267 111.976C591.298 111.976 578.803 105.675 570.463 95.7615C564.137 99.0991 556.93 100.992 549.28 100.992C548.563 100.992 547.849 100.973 547.14 100.94C540.204 117.182 524.087 128.565 505.31 128.565C486.017 128.565 469.531 116.547 462.929 99.5887C462.128 99.6534 461.318 99.6873 460.501 99.6873C451.522 99.6872 443.473 95.7059 438.023 89.4119C434.025 94.2063 428.008 97.2586 421.276 97.2586C409.237 97.2586 399.476 87.4984 399.476 75.4588C399.477 63.4193 409.237 53.659 421.276 53.659C425.826 53.659 430.049 55.0537 433.544 57.4373C438.271 47.2844 448.563 40.246 460.501 40.2459C467.286 40.2459 473.54 42.5211 478.543 46.3485C486.052 40.8698 495.303 37.6346 505.31 37.6346C506.028 37.6346 506.741 37.6535 507.45 37.6863C514.386 21.4448 530.503 10.0613 549.28 10.0613Z" fill="url(#paint0_linear_642_1966)"/>
</g>
<g id="Union_2" filter="url(#filter1_d_642_1966)">
<path d="M110.772 18.637C96.8036 18.637 84.3085 24.939 75.9684 34.8518C69.6415 31.5133 62.433 29.6204 54.7819 29.6204C29.672 29.6204 9.31607 49.9764 9.31606 75.0862C9.31606 100.196 29.672 120.552 54.7819 120.552C68.7508 120.552 81.2455 114.25 89.5856 104.336C95.8421 107.638 102.96 109.523 110.516 109.565C114.814 130.207 133.107 145.715 155.024 145.715C171.42 145.715 185.786 137.035 193.785 124.021C199.266 134.474 210.22 141.607 222.842 141.607C228.238 141.607 233.328 140.303 237.817 137.994C242.14 140.975 247.378 142.722 253.026 142.722C267.844 142.722 279.856 130.71 279.856 115.892C279.856 101.074 267.844 89.0618 253.026 89.0618C251.734 89.0618 250.464 89.1539 249.221 89.3304C244.452 82.8844 237.377 78.2494 229.214 76.6419C228.237 61.111 215.333 48.8168 199.555 48.8167C190.128 48.8167 181.728 53.207 176.283 60.053C170.009 56.7283 162.866 54.8294 155.281 54.7874C150.983 34.1459 132.689 18.6372 110.772 18.637Z" fill="url(#paint1_linear_642_1966)"/>
</g>
<g id="Union_3" filter="url(#filter2_d_642_1966)">
<path d="M419.892 105.783C429.577 108.509 437.639 114.174 443.39 121.539C451.912 118.539 461.411 118.04 470.769 120.674C494.94 127.476 509.021 152.585 502.219 176.756C495.417 200.927 470.308 215.007 446.137 208.205C436.452 205.48 428.39 199.813 422.639 192.447C414.116 195.448 404.619 195.948 395.26 193.314C390.949 192.101 386.96 190.302 383.351 188.032C372.114 200.041 354.732 205.517 337.808 200.755C316.513 194.762 303.053 174.561 304.802 153.309C304.38 153.21 303.957 153.103 303.536 152.985C302.745 152.762 301.972 152.508 301.215 152.227C293.882 160.321 282.347 164.056 271.12 160.897C255.319 156.45 246.114 140.036 250.561 124.235C255.008 108.435 271.422 99.2306 287.222 103.677C288.013 103.899 288.786 104.153 289.543 104.433C296.876 96.3397 308.411 92.6063 319.638 95.7657C328.717 98.3206 335.616 104.827 339.002 112.897C346.461 111.008 354.501 110.99 362.44 113.224C366.751 114.437 370.74 116.236 374.348 118.505C385.586 106.497 402.969 101.021 419.892 105.783Z" fill="url(#paint2_linear_642_1966)"/>
</g>
<g id="Union_4" filter="url(#filter3_d_642_1966)">
<path d="M520.963 61.4896C531.023 61.4896 540.319 64.7588 547.849 70.2904C555.24 65.0932 564.249 62.0405 573.97 62.0404C599.08 62.0404 619.436 82.3964 619.436 107.506C619.436 132.616 599.08 152.971 573.97 152.971C563.91 152.971 554.614 149.701 547.084 144.168C539.693 149.366 530.685 152.42 520.963 152.42C516.484 152.42 512.158 151.769 508.07 150.563C500.507 165.171 485.257 175.157 467.672 175.157C445.548 175.157 427.117 159.354 423.046 138.42C422.615 138.439 422.183 138.451 421.748 138.451C420.923 138.451 420.107 138.415 419.3 138.349C414.434 148.129 404.341 154.85 392.676 154.85C376.262 154.85 362.955 141.543 362.955 125.128C362.955 108.714 376.262 95.4076 392.676 95.4076C393.501 95.4076 394.317 95.4424 395.124 95.5082C399.99 85.7289 410.083 79.0092 421.748 79.0092C431.18 79.0093 439.584 83.4031 445.029 90.2553C451.696 86.4192 459.428 84.226 467.672 84.226C472.149 84.226 476.475 84.8762 480.562 86.0824C488.125 71.4737 503.377 61.4897 520.963 61.4896Z" fill="url(#paint3_linear_642_1966)"/>
</g>
<g id="Union_5" filter="url(#filter4_d_642_1966)">
<path d="M104.722 70.4261C79.612 70.4261 59.2561 90.782 59.2561 115.892C59.2562 141.002 79.6121 161.357 104.722 161.357C110.031 161.357 115.125 160.443 119.862 158.771C128.202 168.677 140.692 174.975 154.655 174.975C163.676 174.975 172.083 172.347 179.153 167.817C186.817 173.704 196.409 177.208 206.821 177.208C215.623 177.208 223.838 174.704 230.799 170.374C233.984 171.54 237.424 172.177 241.013 172.177C247.195 172.177 252.935 170.289 257.691 167.059C262.333 170.059 267.863 171.802 273.802 171.802C290.216 171.802 303.524 158.496 303.524 142.081C303.524 125.667 290.216 112.361 273.802 112.361C267.621 112.361 261.88 114.248 257.125 117.477C254.523 115.795 251.642 114.509 248.566 113.703C241.583 97.5679 225.522 86.2767 206.821 86.2767C197.802 86.2767 189.395 88.9038 182.325 93.4339C174.661 87.5461 165.068 84.0433 154.655 84.0433C149.347 84.0433 144.252 84.9561 139.516 86.6282C131.176 76.7222 118.685 70.4262 104.722 70.4261Z" fill="url(#paint4_linear_642_1966)"/>
</g>
</g>
<defs>
<filter id="filter0_d_642_1966" x="390.16" y="3.57628e-07" width="269.888" height="137.136" filterUnits="userSpaceOnUse" color-interpolation-filters="sRGB">
<feFlood flood-opacity="0" result="BackgroundImageFix"/>
<feColorMatrix in="SourceAlpha" type="matrix" values="0 0 0 0 0 0 0 0 0 0 0 0 0 0 0 0 0 0 127 0" result="hardAlpha"/>
<feOffset dy="-0.745285"/>
<feGaussianBlur stdDeviation="4.65803"/>
<feComposite in2="hardAlpha" operator="out"/>
<feColorMatrix type="matrix" values="0 0 0 0 0 0 0 0 0 0 0 0 0 0 0 0 0 0 0.5 0"/>
<feBlend mode="normal" in2="BackgroundImageFix" result="effect1_dropShadow_642_1966"/>
<feBlend mode="normal" in="SourceGraphic" in2="effect1_dropShadow_642_1966" result="shape"/>
</filter>
<filter id="filter1_d_642_1966" x="0" y="8.57566" width="289.172" height="145.71" filterUnits="userSpaceOnUse" color-interpolation-filters="sRGB">
<feFlood flood-opacity="0" result="BackgroundImageFix"/>
<feColorMatrix in="SourceAlpha" type="matrix" values="0 0 0 0 0 0 0 0 0 0 0 0 0 0 0 0 0 0 127 0" result="hardAlpha"/>
<feOffset dy="-0.745285"/>
<feGaussianBlur stdDeviation="4.65803"/>
<feComposite in2="hardAlpha" operator="out"/>
<feColorMatrix type="matrix" values="0 0 0 0 0 0 0 0 0 0 0 0 0 0 0 0 0 0 0.5 0"/>
<feBlend mode="normal" in2="BackgroundImageFix" result="effect1_dropShadow_642_1966"/>
<feBlend mode="normal" in="SourceGraphic" in2="effect1_dropShadow_642_1966" result="shape"/>
</filter>
<filter id="filter2_d_642_1966" x="240.126" y="84.5857" width="273.12" height="133.902" filterUnits="userSpaceOnUse" color-interpolation-filters="sRGB">
<feFlood flood-opacity="0" result="BackgroundImageFix"/>
<feColorMatrix in="SourceAlpha" type="matrix" values="0 0 0 0 0 0 0 0 0 0 0 0 0 0 0 0 0 0 127 0" result="hardAlpha"/>
<feOffset dy="-0.745285"/>
<feGaussianBlur stdDeviation="4.65803"/>
<feComposite in2="hardAlpha" operator="out"/>
<feColorMatrix type="matrix" values="0 0 0 0 0 0 0 0 0 0 0 0 0 0 0 0 0 0 0.5 0"/>
<feBlend mode="normal" in2="BackgroundImageFix" result="effect1_dropShadow_642_1966"/>
<feBlend mode="normal" in="SourceGraphic" in2="effect1_dropShadow_642_1966" result="shape"/>
</filter>
<filter id="filter3_d_642_1966" x="353.639" y="51.4283" width="275.114" height="132.299" filterUnits="userSpaceOnUse" color-interpolation-filters="sRGB">
<feFlood flood-opacity="0" result="BackgroundImageFix"/>
<feColorMatrix in="SourceAlpha" type="matrix" values="0 0 0 0 0 0 0 0 0 0 0 0 0 0 0 0 0 0 127 0" result="hardAlpha"/>
<feOffset dy="-0.745285"/>
<feGaussianBlur stdDeviation="4.65803"/>
<feComposite in2="hardAlpha" operator="out"/>
<feColorMatrix type="matrix" values="0 0 0 0 0 0 0 0 0 0 0 0 0 0 0 0 0 0 0.5 0"/>
<feBlend mode="normal" in2="BackgroundImageFix" result="effect1_dropShadow_642_1966"/>
<feBlend mode="normal" in="SourceGraphic" in2="effect1_dropShadow_642_1966" result="shape"/>
</filter>
<filter id="filter4_d_642_1966" x="49.94" y="60.3647" width="262.9" height="125.414" filterUnits="userSpaceOnUse" color-interpolation-filters="sRGB">
<feFlood flood-opacity="0" result="BackgroundImageFix"/>
<feColorMatrix in="SourceAlpha" type="matrix" values="0 0 0 0 0 0 0 0 0 0 0 0 0 0 0 0 0 0 127 0" result="hardAlpha"/>
<feOffset dy="-0.745285"/>
<feGaussianBlur stdDeviation="4.65803"/>
<feComposite in2="hardAlpha" operator="out"/>
<feColorMatrix type="matrix" values="0 0 0 0 0 0 0 0 0 0 0 0 0 0 0 0 0 0 0.5 0"/>
<feBlend mode="normal" in2="BackgroundImageFix" result="effect1_dropShadow_642_1966"/>
<feBlend mode="normal" in="SourceGraphic" in2="effect1_dropShadow_642_1966" result="shape"/>
</filter>
<linearGradient id="paint0_linear_642_1966" x1="515.595" y1="-2.91917" x2="552.941" y2="171.06" gradientUnits="userSpaceOnUse">
<stop stop-color="white"/>
<stop offset="1" stop-color="#3498DB"/>
</linearGradient>
<linearGradient id="paint1_linear_642_1966" x1="144.455" y1="5.65612" x2="107.108" y2="179.64" gradientUnits="userSpaceOnUse">
<stop stop-color="white"/>
<stop offset="1" stop-color="#3498DB"/>
</linearGradient>
<linearGradient id="paint2_linear_642_1966" x1="380.157" y1="81.6684" x2="366.037" y2="252.435" gradientUnits="userSpaceOnUse">
<stop stop-color="white"/>
<stop offset="1" stop-color="#3498DB"/>
</linearGradient>
<linearGradient id="paint3_linear_642_1966" x1="476.177" y1="49.039" x2="508.849" y2="217.261" gradientUnits="userSpaceOnUse">
<stop stop-color="white"/>
<stop offset="1" stop-color="#3498DB"/>
</linearGradient>
<linearGradient id="paint4_linear_642_1966" x1="202.509" y1="57.4246" x2="169.835" y2="225.647" gradientUnits="userSpaceOnUse">
<stop stop-color="white"/>
<stop offset="1" stop-color="#3498DB"/>
</linearGradient>
</defs>
</svg>
