<svg preserveAspectRatio="none" overflow="visible" style="display: block;" width="11.3918" height="25.0068" viewBox="0 0 11.3918 25.0068" fill="none" xmlns="http://www.w3.org/2000/svg">
<g id="Kuping Kiri">
<path id="Rectangle 1001" d="M0 6.23033C0 3.46056 2.24534 1.21523 5.0151 1.21523H11.3359V23.7831H5.01511C2.24534 23.7831 0 21.5378 0 18.768V6.23033Z" fill="#FE5AF9"/>
<path id="Rectangle 1002" d="M0 1.21523L2.50063 16.6721C2.95686 19.4921 4.97105 21.8104 7.69971 22.6561L11.3359 23.7831H5.01511C2.24534 23.7831 0 21.5378 0 18.768V1.21523Z" fill="#76007D" fill-opacity="0.18"/>
<path id="Vector 339" d="M8.25384 23.4378V1.56892C8.25384 0.702431 8.95627 0 9.82276 0C10.6893 0 11.3917 0.702429 11.3917 1.56892V23.4378C11.3917 24.3043 10.6893 25.0068 9.82276 25.0068C8.95627 25.0068 8.25384 24.3043 8.25384 23.4378Z" fill="#209CEE"/>
</g>
</svg>
